<?xml version="1.0" encoding="UTF-8"?>
<svg width="24" height="24" viewBox="0 0 24 24" fill="none" xmlns="http://www.w3.org/2000/svg" aria-hidden="true">
  <path d="M12 2C6.5 2 2 6.5 2 12c0 4.4 2.9 8.1 6.9 9.4.5.1.7-.2.7-.5v-1.9c-2.8.6-3.4-1.2-3.4-1.2-.5-1.2-1.2-1.5-1.2-1.5-1-.7.1-.7.1-.7 1.1.1 1.7 1.1 1.7 1.1 1 .1 1.6.8 2 1.1.2-.8.4-1.4.8-1.7-2.2-.3-4.5-1.1-4.5-4.9 0-1 .4-1.9 1.1-2.6-.1-.3-.5-1.2.1-2.5 0 0 .9-.3 2.9 1 1-.3 2.1-.5 3.2-.5 1.1 0 2.2.2 3.2.5 2-.1 2.9-1 2.9-1 .6 1.3.2 2.2.1 2.5.7.7 1.1 1.6 1.1 2.6 0 3.8-2.3 4.6-4.5 4.9.4.4.8 1.1.8 2.3v3.4c0 .3.2.6.7.5C19.1 20.1 22 16.4 22 12c0-5.5-4.5-10-10-10z" fill="#111827"/>
</svg>
